<mxfile host="Electron" agent="Mozilla/5.0 (X11; Linux x86_64) AppleWebKit/537.36 (KHTML, like Gecko) draw.io/28.1.2 Chrome/138.0.7204.243 Electron/37.4.0 Safari/537.36" version="28.1.2">
  <diagram name="Page-1" id="Ymhac-gYsD-7-W69g-JU">
    <mxGraphModel dx="2340" dy="1373" grid="1" gridSize="10" guides="1" tooltips="1" connect="1" arrows="1" fold="1" page="1" pageScale="1" pageWidth="850" pageHeight="1100" math="0" shadow="0">
      <root>
        <mxCell id="0" />
        <mxCell id="1" parent="0" />
        <mxCell id="_YqeDHZtM0K_vwDkv74_-184" value="ERROR_HANDLING" style="whiteSpace=wrap;strokeWidth=2;" vertex="1" parent="1">
          <mxGeometry x="2066" y="3484" width="2170" height="128" as="geometry" />
        </mxCell>
        <mxCell id="_YqeDHZtM0K_vwDkv74_-185" value="GUARDS" style="whiteSpace=wrap;strokeWidth=2;" vertex="1" parent="1">
          <mxGeometry x="20" y="20" width="6351" height="104" as="geometry" />
        </mxCell>
        <mxCell id="_YqeDHZtM0K_vwDkv74_-186" value="Start" style="whiteSpace=wrap;strokeWidth=2;" vertex="1" parent="1">
          <mxGeometry x="6406" y="45" width="94" height="54" as="geometry" />
        </mxCell>
        <mxCell id="_YqeDHZtM0K_vwDkv74_-187" value="Is User Authenticated?" style="rhombus;strokeWidth=2;whiteSpace=wrap;" vertex="1" parent="1">
          <mxGeometry x="5232" y="195" width="215" height="215" as="geometry" />
        </mxCell>
        <mxCell id="_YqeDHZtM0K_vwDkv74_-188" value="Login Page" style="whiteSpace=wrap;strokeWidth=2;" vertex="1" parent="1">
          <mxGeometry x="5199" y="481" width="141" height="54" as="geometry" />
        </mxCell>
        <mxCell id="_YqeDHZtM0K_vwDkv74_-189" value="Is Admin User?" style="rhombus;strokeWidth=2;whiteSpace=wrap;" vertex="1" parent="1">
          <mxGeometry x="5258" y="1404" width="162" height="162" as="geometry" />
        </mxCell>
        <mxCell id="_YqeDHZtM0K_vwDkv74_-190" value="Enter Credentials" style="whiteSpace=wrap;strokeWidth=2;" vertex="1" parent="1">
          <mxGeometry x="5074" y="585" width="184" height="54" as="geometry" />
        </mxCell>
        <mxCell id="_YqeDHZtM0K_vwDkv74_-191" value="Send Login Request" style="whiteSpace=wrap;strokeWidth=2;" vertex="1" parent="1">
          <mxGeometry x="5063" y="689" width="205" height="54" as="geometry" />
        </mxCell>
        <mxCell id="_YqeDHZtM0K_vwDkv74_-192" value="Valid Credentials?" style="rhombus;strokeWidth=2;whiteSpace=wrap;" vertex="1" parent="1">
          <mxGeometry x="5074" y="814" width="183" height="183" as="geometry" />
        </mxCell>
        <mxCell id="_YqeDHZtM0K_vwDkv74_-193" value="Receive JWT Token" style="whiteSpace=wrap;strokeWidth=2;" vertex="1" parent="1">
          <mxGeometry x="5041" y="1068" width="202" height="54" as="geometry" />
        </mxCell>
        <mxCell id="_YqeDHZtM0K_vwDkv74_-194" value="Store Token in localStorage" style="whiteSpace=wrap;strokeWidth=2;" vertex="1" parent="1">
          <mxGeometry x="5014" y="1172" width="255" height="54" as="geometry" />
        </mxCell>
        <mxCell id="_YqeDHZtM0K_vwDkv74_-195" value="Decode User Role from Token" style="whiteSpace=wrap;strokeWidth=2;" vertex="1" parent="1">
          <mxGeometry x="5012" y="1276" width="260" height="78" as="geometry" />
        </mxCell>
        <mxCell id="_YqeDHZtM0K_vwDkv74_-196" value="Show Error Message" style="whiteSpace=wrap;strokeWidth=2;" vertex="1" parent="1">
          <mxGeometry x="5293" y="1068" width="209" height="54" as="geometry" />
        </mxCell>
        <mxCell id="_YqeDHZtM0K_vwDkv74_-197" value="Admin Role Selection" style="whiteSpace=wrap;strokeWidth=2;" vertex="1" parent="1">
          <mxGeometry x="5035" y="1637" width="213" height="54" as="geometry" />
        </mxCell>
        <mxCell id="_YqeDHZtM0K_vwDkv74_-198" value="Select Role and Groups for Users" style="whiteSpace=wrap;strokeWidth=2;" vertex="1" parent="1">
          <mxGeometry x="5012" y="1841" width="260" height="78" as="geometry" />
        </mxCell>
        <mxCell id="_YqeDHZtM0K_vwDkv74_-199" value="Store User Context" style="whiteSpace=wrap;strokeWidth=2;" vertex="1" parent="1">
          <mxGeometry x="5044" y="2102" width="196" height="54" as="geometry" />
        </mxCell>
        <mxCell id="_YqeDHZtM0K_vwDkv74_-200" value="Admin Dashboard" style="whiteSpace=wrap;strokeWidth=2;" vertex="1" parent="1">
          <mxGeometry x="5048" y="2218" width="188" height="54" as="geometry" />
        </mxCell>
        <mxCell id="_YqeDHZtM0K_vwDkv74_-201" value="User Dashboard" style="whiteSpace=wrap;strokeWidth=2;" vertex="1" parent="1">
          <mxGeometry x="5405" y="1637" width="177" height="54" as="geometry" />
        </mxCell>
        <mxCell id="_YqeDHZtM0K_vwDkv74_-202" value="Can Access Admin Dashboard?" style="rhombus;strokeWidth=2;whiteSpace=wrap;" vertex="1" parent="1">
          <mxGeometry x="1540" y="2322" width="278" height="278" as="geometry" />
        </mxCell>
        <mxCell id="_YqeDHZtM0K_vwDkv74_-203" value="Redirect to Unauthorized" style="whiteSpace=wrap;strokeWidth=2;" vertex="1" parent="1">
          <mxGeometry x="1277" y="2683" width="237" height="54" as="geometry" />
        </mxCell>
        <mxCell id="_YqeDHZtM0K_vwDkv74_-204" value="Admin Dashboard Components" style="whiteSpace=wrap;strokeWidth=2;" vertex="1" parent="1">
          <mxGeometry x="1848" y="2671" width="260" height="78" as="geometry" />
        </mxCell>
        <mxCell id="_YqeDHZtM0K_vwDkv74_-205" value="General Info Cards" style="whiteSpace=wrap;strokeWidth=2;" vertex="1" parent="1">
          <mxGeometry x="1360" y="2799" width="195" height="54" as="geometry" />
        </mxCell>
        <mxCell id="_YqeDHZtM0K_vwDkv74_-206" value="Employees Count" style="whiteSpace=wrap;strokeWidth=2;" vertex="1" parent="1">
          <mxGeometry x="1364" y="2915" width="186" height="54" as="geometry" />
        </mxCell>
        <mxCell id="_YqeDHZtM0K_vwDkv74_-207" value="Projects Count" style="whiteSpace=wrap;strokeWidth=2;" vertex="1" parent="1">
          <mxGeometry x="80" y="3143" width="165" height="54" as="geometry" />
        </mxCell>
        <mxCell id="_YqeDHZtM0K_vwDkv74_-208" value="Incomes Summary" style="whiteSpace=wrap;strokeWidth=2;" vertex="1" parent="1">
          <mxGeometry x="65" y="3380" width="193" height="54" as="geometry" />
        </mxCell>
        <mxCell id="_YqeDHZtM0K_vwDkv74_-209" value="هزینه Summary" style="whiteSpace=wrap;strokeWidth=2;" vertex="1" parent="1">
          <mxGeometry x="79" y="3521" width="166" height="54" as="geometry" />
        </mxCell>
        <mxCell id="_YqeDHZtM0K_vwDkv74_-210" value="Charts Section" style="whiteSpace=wrap;strokeWidth=2;" vertex="1" parent="1">
          <mxGeometry x="1648" y="2799" width="165" height="54" as="geometry" />
        </mxCell>
        <mxCell id="_YqeDHZtM0K_vwDkv74_-211" value="Employee Distribution Chart" style="whiteSpace=wrap;strokeWidth=2;" vertex="1" parent="1">
          <mxGeometry x="1601" y="2915" width="259" height="54" as="geometry" />
        </mxCell>
        <mxCell id="_YqeDHZtM0K_vwDkv74_-212" value="Project Status Chart" style="whiteSpace=wrap;strokeWidth=2;" vertex="1" parent="1">
          <mxGeometry x="1705" y="3143" width="203" height="54" as="geometry" />
        </mxCell>
        <mxCell id="_YqeDHZtM0K_vwDkv74_-213" value="Income vs هزینه Chart" style="whiteSpace=wrap;strokeWidth=2;" vertex="1" parent="1">
          <mxGeometry x="1700" y="3380" width="214" height="54" as="geometry" />
        </mxCell>
        <mxCell id="_YqeDHZtM0K_vwDkv74_-214" value="Admin Navigation Menu" style="whiteSpace=wrap;strokeWidth=2;" vertex="1" parent="1">
          <mxGeometry x="2614" y="2799" width="230" height="54" as="geometry" />
        </mxCell>
        <mxCell id="_YqeDHZtM0K_vwDkv74_-215" value="Projects Management" style="whiteSpace=wrap;strokeWidth=2;" vertex="1" parent="1">
          <mxGeometry x="1910" y="2915" width="216" height="54" as="geometry" />
        </mxCell>
        <mxCell id="_YqeDHZtM0K_vwDkv74_-216" value="Users Management" style="whiteSpace=wrap;strokeWidth=2;" vertex="1" parent="1">
          <mxGeometry x="2176" y="2915" width="200" height="54" as="geometry" />
        </mxCell>
        <mxCell id="_YqeDHZtM0K_vwDkv74_-217" value="Financial Management" style="whiteSpace=wrap;strokeWidth=2;" vertex="1" parent="1">
          <mxGeometry x="2824" y="2915" width="222" height="54" as="geometry" />
        </mxCell>
        <mxCell id="_YqeDHZtM0K_vwDkv74_-218" value="System Logs" style="whiteSpace=wrap;strokeWidth=2;" vertex="1" parent="1">
          <mxGeometry x="3373" y="2915" width="152" height="54" as="geometry" />
        </mxCell>
        <mxCell id="_YqeDHZtM0K_vwDkv74_-219" value="Role/Permission Management" style="whiteSpace=wrap;strokeWidth=2;" vertex="1" parent="1">
          <mxGeometry x="3719" y="2903" width="260" height="78" as="geometry" />
        </mxCell>
        <mxCell id="_YqeDHZtM0K_vwDkv74_-220" value="Can Access User Dashboard?" style="rhombus;strokeWidth=2;whiteSpace=wrap;" vertex="1" parent="1">
          <mxGeometry x="651" y="1741" width="278" height="278" as="geometry" />
        </mxCell>
        <mxCell id="_YqeDHZtM0K_vwDkv74_-221" value="Redirect to Unauthorized" style="whiteSpace=wrap;strokeWidth=2;" vertex="1" parent="1">
          <mxGeometry x="578" y="2102" width="237" height="54" as="geometry" />
        </mxCell>
        <mxCell id="_YqeDHZtM0K_vwDkv74_-222" value="User Dashboard Components" style="whiteSpace=wrap;strokeWidth=2;" vertex="1" parent="1">
          <mxGeometry x="865" y="2090" width="260" height="78" as="geometry" />
        </mxCell>
        <mxCell id="_YqeDHZtM0K_vwDkv74_-223" value="General Info Cards" style="whiteSpace=wrap;strokeWidth=2;" vertex="1" parent="1">
          <mxGeometry x="774" y="2218" width="195" height="54" as="geometry" />
        </mxCell>
        <mxCell id="_YqeDHZtM0K_vwDkv74_-224" value="My Projects Count" style="whiteSpace=wrap;strokeWidth=2;" vertex="1" parent="1">
          <mxGeometry x="776" y="2434" width="191" height="54" as="geometry" />
        </mxCell>
        <mxCell id="_YqeDHZtM0K_vwDkv74_-225" value="My Tasks" style="whiteSpace=wrap;strokeWidth=2;" vertex="1" parent="1">
          <mxGeometry x="808" y="2683" width="126" height="54" as="geometry" />
        </mxCell>
        <mxCell id="_YqeDHZtM0K_vwDkv74_-226" value="Personal Income Info" style="whiteSpace=wrap;strokeWidth=2;" vertex="1" parent="1">
          <mxGeometry x="766" y="2799" width="211" height="54" as="geometry" />
        </mxCell>
        <mxCell id="_YqeDHZtM0K_vwDkv74_-227" value="User Charts" style="whiteSpace=wrap;strokeWidth=2;" vertex="1" parent="1">
          <mxGeometry x="1046" y="2218" width="145" height="54" as="geometry" />
        </mxCell>
        <mxCell id="_YqeDHZtM0K_vwDkv74_-228" value="My Project Progress" style="whiteSpace=wrap;strokeWidth=2;" vertex="1" parent="1">
          <mxGeometry x="1017" y="2434" width="204" height="54" as="geometry" />
        </mxCell>
        <mxCell id="_YqeDHZtM0K_vwDkv74_-229" value="Personal Performance" style="whiteSpace=wrap;strokeWidth=2;" vertex="1" parent="1">
          <mxGeometry x="1271" y="2434" width="219" height="54" as="geometry" />
        </mxCell>
        <mxCell id="_YqeDHZtM0K_vwDkv74_-230" value="User Navigation Menu" style="whiteSpace=wrap;strokeWidth=2;" vertex="1" parent="1">
          <mxGeometry x="4359" y="2218" width="218" height="54" as="geometry" />
        </mxCell>
        <mxCell id="_YqeDHZtM0K_vwDkv74_-231" value="My Projects" style="whiteSpace=wrap;strokeWidth=2;" vertex="1" parent="1">
          <mxGeometry x="4035" y="2434" width="144" height="54" as="geometry" />
        </mxCell>
        <mxCell id="_YqeDHZtM0K_vwDkv74_-232" value="My Profile" style="whiteSpace=wrap;strokeWidth=2;" vertex="1" parent="1">
          <mxGeometry x="4277" y="2434" width="131" height="54" as="geometry" />
        </mxCell>
        <mxCell id="_YqeDHZtM0K_vwDkv74_-233" value="My Financial Info" style="whiteSpace=wrap;strokeWidth=2;" vertex="1" parent="1">
          <mxGeometry x="4491" y="2434" width="181" height="54" as="geometry" />
        </mxCell>
        <mxCell id="_YqeDHZtM0K_vwDkv74_-234" value="My Activity Log" style="whiteSpace=wrap;strokeWidth=2;" vertex="1" parent="1">
          <mxGeometry x="4721" y="2434" width="167" height="54" as="geometry" />
        </mxCell>
        <mxCell id="_YqeDHZtM0K_vwDkv74_-235" value="Has Project Management Rights?" style="rhombus;strokeWidth=2;whiteSpace=wrap;" vertex="1" parent="1">
          <mxGeometry x="904" y="3031" width="278" height="278" as="geometry" />
        </mxCell>
        <mxCell id="_YqeDHZtM0K_vwDkv74_-236" value="Access Denied" style="whiteSpace=wrap;strokeWidth=2;" vertex="1" parent="1">
          <mxGeometry x="607" y="3380" width="167" height="54" as="geometry" />
        </mxCell>
        <mxCell id="_YqeDHZtM0K_vwDkv74_-237" value="Projects List" style="whiteSpace=wrap;strokeWidth=2;" vertex="1" parent="1">
          <mxGeometry x="1473" y="3380" width="147" height="54" as="geometry" />
        </mxCell>
        <mxCell id="_YqeDHZtM0K_vwDkv74_-238" value="Project CRUD Operations" style="whiteSpace=wrap;strokeWidth=2;" vertex="1" parent="1">
          <mxGeometry x="589" y="3521" width="243" height="54" as="geometry" />
        </mxCell>
        <mxCell id="_YqeDHZtM0K_vwDkv74_-239" value="Project Detail Management" style="whiteSpace=wrap;strokeWidth=2;" vertex="1" parent="1">
          <mxGeometry x="584" y="3674" width="253" height="54" as="geometry" />
        </mxCell>
        <mxCell id="_YqeDHZtM0K_vwDkv74_-240" value="Has User Management Rights?" style="rhombus;strokeWidth=2;whiteSpace=wrap;" vertex="1" parent="1">
          <mxGeometry x="2755" y="3031" width="278" height="278" as="geometry" />
        </mxCell>
        <mxCell id="_YqeDHZtM0K_vwDkv74_-241" value="Access Denied" style="whiteSpace=wrap;strokeWidth=2;" vertex="1" parent="1">
          <mxGeometry x="2116" y="3380" width="167" height="54" as="geometry" />
        </mxCell>
        <mxCell id="_YqeDHZtM0K_vwDkv74_-242" value="Users List" style="whiteSpace=wrap;strokeWidth=2;" vertex="1" parent="1">
          <mxGeometry x="3004" y="3380" width="131" height="54" as="geometry" />
        </mxCell>
        <mxCell id="_YqeDHZtM0K_vwDkv74_-243" value="User CRUD Operations" style="whiteSpace=wrap;strokeWidth=2;" vertex="1" parent="1">
          <mxGeometry x="1780" y="3521" width="227" height="54" as="geometry" />
        </mxCell>
        <mxCell id="_YqeDHZtM0K_vwDkv74_-244" value="User Detail Management" style="whiteSpace=wrap;strokeWidth=2;" vertex="1" parent="1">
          <mxGeometry x="1775" y="3674" width="237" height="54" as="geometry" />
        </mxCell>
        <mxCell id="_YqeDHZtM0K_vwDkv74_-245" value="Assign Roles/Groups" style="whiteSpace=wrap;strokeWidth=2;" vertex="1" parent="1">
          <mxGeometry x="1789" y="3790" width="210" height="54" as="geometry" />
        </mxCell>
        <mxCell id="_YqeDHZtM0K_vwDkv74_-246" value="Has Financial Rights?" style="rhombus;strokeWidth=2;whiteSpace=wrap;" vertex="1" parent="1">
          <mxGeometry x="3226" y="3065" width="210" height="210" as="geometry" />
        </mxCell>
        <mxCell id="_YqeDHZtM0K_vwDkv74_-247" value="Access Denied" style="whiteSpace=wrap;strokeWidth=2;" vertex="1" parent="1">
          <mxGeometry x="3248" y="3380" width="167" height="54" as="geometry" />
        </mxCell>
        <mxCell id="_YqeDHZtM0K_vwDkv74_-248" value="Financial Transactions List" style="whiteSpace=wrap;strokeWidth=2;" vertex="1" parent="1">
          <mxGeometry x="3562" y="3380" width="249" height="54" as="geometry" />
        </mxCell>
        <mxCell id="_YqeDHZtM0K_vwDkv74_-249" value="Transaction CRUD Operations" style="whiteSpace=wrap;strokeWidth=2;" vertex="1" parent="1">
          <mxGeometry x="4287" y="3509" width="260" height="78" as="geometry" />
        </mxCell>
        <mxCell id="_YqeDHZtM0K_vwDkv74_-250" value="Financial Detail Management" style="whiteSpace=wrap;strokeWidth=2;" vertex="1" parent="1">
          <mxGeometry x="4287" y="3662" width="260" height="78" as="geometry" />
        </mxCell>
        <mxCell id="_YqeDHZtM0K_vwDkv74_-251" value="Has Log Access Rights?" style="rhombus;strokeWidth=2;whiteSpace=wrap;" vertex="1" parent="1">
          <mxGeometry x="3958" y="3056" width="227" height="227" as="geometry" />
        </mxCell>
        <mxCell id="_YqeDHZtM0K_vwDkv74_-252" value="Access Denied" style="whiteSpace=wrap;strokeWidth=2;" vertex="1" parent="1">
          <mxGeometry x="3861" y="3380" width="167" height="54" as="geometry" />
        </mxCell>
        <mxCell id="_YqeDHZtM0K_vwDkv74_-253" value="Log Management" style="whiteSpace=wrap;strokeWidth=2;" vertex="1" parent="1">
          <mxGeometry x="4139" y="3380" width="185" height="54" as="geometry" />
        </mxCell>
        <mxCell id="_YqeDHZtM0K_vwDkv74_-254" value="Date Selection for Logs" style="whiteSpace=wrap;strokeWidth=2;" vertex="1" parent="1">
          <mxGeometry x="4738" y="3521" width="226" height="54" as="geometry" />
        </mxCell>
        <mxCell id="_YqeDHZtM0K_vwDkv74_-255" value="Calendar/Date Picker" style="whiteSpace=wrap;strokeWidth=2;" vertex="1" parent="1">
          <mxGeometry x="4746" y="3674" width="212" height="54" as="geometry" />
        </mxCell>
        <mxCell id="_YqeDHZtM0K_vwDkv74_-256" value="Select Date Range" style="whiteSpace=wrap;strokeWidth=2;" vertex="1" parent="1">
          <mxGeometry x="4754" y="3790" width="194" height="54" as="geometry" />
        </mxCell>
        <mxCell id="_YqeDHZtM0K_vwDkv74_-257" value="Fetch and Display Logs" style="whiteSpace=wrap;strokeWidth=2;" vertex="1" parent="1">
          <mxGeometry x="4738" y="3894" width="227" height="54" as="geometry" />
        </mxCell>
        <mxCell id="_YqeDHZtM0K_vwDkv74_-258" value="Has Role Management Rights?" style="rhombus;strokeWidth=2;whiteSpace=wrap;" vertex="1" parent="1">
          <mxGeometry x="5967" y="3031" width="278" height="278" as="geometry" />
        </mxCell>
        <mxCell id="_YqeDHZtM0K_vwDkv74_-259" value="Access Denied" style="whiteSpace=wrap;strokeWidth=2;" vertex="1" parent="1">
          <mxGeometry x="4373" y="3380" width="167" height="54" as="geometry" />
        </mxCell>
        <mxCell id="_YqeDHZtM0K_vwDkv74_-260" value="Role Management" style="whiteSpace=wrap;strokeWidth=2;" vertex="1" parent="1">
          <mxGeometry x="6011" y="3380" width="191" height="54" as="geometry" />
        </mxCell>
        <mxCell id="_YqeDHZtM0K_vwDkv74_-261" value="Create/Edit Roles" style="whiteSpace=wrap;strokeWidth=2;" vertex="1" parent="1">
          <mxGeometry x="6013" y="3521" width="185" height="54" as="geometry" />
        </mxCell>
        <mxCell id="_YqeDHZtM0K_vwDkv74_-262" value="Assign Permissions" style="whiteSpace=wrap;strokeWidth=2;" vertex="1" parent="1">
          <mxGeometry x="6006" y="3674" width="200" height="54" as="geometry" />
        </mxCell>
        <mxCell id="_YqeDHZtM0K_vwDkv74_-263" value="Group Management" style="whiteSpace=wrap;strokeWidth=2;" vertex="1" parent="1">
          <mxGeometry x="6005" y="3790" width="202" height="54" as="geometry" />
        </mxCell>
        <mxCell id="_YqeDHZtM0K_vwDkv74_-264" value="View My Projects" style="whiteSpace=wrap;strokeWidth=2;" vertex="1" parent="1">
          <mxGeometry x="4015" y="2683" width="182" height="54" as="geometry" />
        </mxCell>
        <mxCell id="_YqeDHZtM0K_vwDkv74_-265" value="Project Details" style="whiteSpace=wrap;strokeWidth=2;" vertex="1" parent="1">
          <mxGeometry x="4025" y="2799" width="163" height="54" as="geometry" />
        </mxCell>
        <mxCell id="_YqeDHZtM0K_vwDkv74_-266" value="My Tasks" style="whiteSpace=wrap;strokeWidth=2;" vertex="1" parent="1">
          <mxGeometry x="4043" y="2915" width="126" height="54" as="geometry" />
        </mxCell>
        <mxCell id="_YqeDHZtM0K_vwDkv74_-267" value="Project Documents" style="whiteSpace=wrap;strokeWidth=2;" vertex="1" parent="1">
          <mxGeometry x="3713" y="3143" width="195" height="54" as="geometry" />
        </mxCell>
        <mxCell id="_YqeDHZtM0K_vwDkv74_-268" value="Profile Information" style="whiteSpace=wrap;strokeWidth=2;" vertex="1" parent="1">
          <mxGeometry x="4248" y="2683" width="190" height="54" as="geometry" />
        </mxCell>
        <mxCell id="_YqeDHZtM0K_vwDkv74_-269" value="Personal Details" style="whiteSpace=wrap;strokeWidth=2;" vertex="1" parent="1">
          <mxGeometry x="4254" y="2799" width="177" height="54" as="geometry" />
        </mxCell>
        <mxCell id="_YqeDHZtM0K_vwDkv74_-270" value="Contact Information" style="whiteSpace=wrap;strokeWidth=2;" vertex="1" parent="1">
          <mxGeometry x="4243" y="2915" width="200" height="54" as="geometry" />
        </mxCell>
        <mxCell id="_YqeDHZtM0K_vwDkv74_-271" value="Change Password" style="whiteSpace=wrap;strokeWidth=2;" vertex="1" parent="1">
          <mxGeometry x="4464" y="3143" width="191" height="54" as="geometry" />
        </mxCell>
        <mxCell id="_YqeDHZtM0K_vwDkv74_-272" value="View My Incomes" style="whiteSpace=wrap;strokeWidth=2;" vertex="1" parent="1">
          <mxGeometry x="4488" y="2683" width="185" height="54" as="geometry" />
        </mxCell>
        <mxCell id="_YqeDHZtM0K_vwDkv74_-273" value="Income Details" style="whiteSpace=wrap;strokeWidth=2;" vertex="1" parent="1">
          <mxGeometry x="4498" y="2799" width="166" height="54" as="geometry" />
        </mxCell>
        <mxCell id="_YqeDHZtM0K_vwDkv74_-274" value="Payment History" style="whiteSpace=wrap;strokeWidth=2;" vertex="1" parent="1">
          <mxGeometry x="4492" y="2915" width="177" height="54" as="geometry" />
        </mxCell>
        <mxCell id="_YqeDHZtM0K_vwDkv74_-275" value="Activity Log" style="whiteSpace=wrap;strokeWidth=2;" vertex="1" parent="1">
          <mxGeometry x="4734" y="2683" width="142" height="54" as="geometry" />
        </mxCell>
        <mxCell id="_YqeDHZtM0K_vwDkv74_-276" value="My Actions" style="whiteSpace=wrap;strokeWidth=2;" vertex="1" parent="1">
          <mxGeometry x="4736" y="2799" width="137" height="54" as="geometry" />
        </mxCell>
        <mxCell id="_YqeDHZtM0K_vwDkv74_-277" value="Date Filter" style="whiteSpace=wrap;strokeWidth=2;" vertex="1" parent="1">
          <mxGeometry x="4738" y="2915" width="134" height="54" as="geometry" />
        </mxCell>
        <mxCell id="_YqeDHZtM0K_vwDkv74_-278" value="AuthGuard" style="whiteSpace=wrap;strokeWidth=2;" vertex="1" parent="1">
          <mxGeometry x="55" y="45" width="137" height="54" as="geometry" />
        </mxCell>
        <mxCell id="_YqeDHZtM0K_vwDkv74_-279" value="RoleGuard" style="whiteSpace=wrap;strokeWidth=2;" vertex="1" parent="1">
          <mxGeometry x="242" y="45" width="137" height="54" as="geometry" />
        </mxCell>
        <mxCell id="_YqeDHZtM0K_vwDkv74_-280" value="PermissionGuard" style="whiteSpace=wrap;strokeWidth=2;" vertex="1" parent="1">
          <mxGeometry x="4849" y="45" width="184" height="54" as="geometry" />
        </mxCell>
        <mxCell id="_YqeDHZtM0K_vwDkv74_-281" value="AdminGuard" style="whiteSpace=wrap;strokeWidth=2;" vertex="1" parent="1">
          <mxGeometry x="6186" y="45" width="150" height="54" as="geometry" />
        </mxCell>
        <mxCell id="_YqeDHZtM0K_vwDkv74_-282" value="401 Unauthorized" style="whiteSpace=wrap;strokeWidth=2;" vertex="1" parent="1">
          <mxGeometry x="2853" y="3521" width="186" height="54" as="geometry" />
        </mxCell>
        <mxCell id="_YqeDHZtM0K_vwDkv74_-283" value="403 Forbidden" style="whiteSpace=wrap;strokeWidth=2;" vertex="1" parent="1">
          <mxGeometry x="3822" y="3521" width="163" height="54" as="geometry" />
        </mxCell>
        <mxCell id="_YqeDHZtM0K_vwDkv74_-284" value="404 Not Found" style="whiteSpace=wrap;strokeWidth=2;" vertex="1" parent="1">
          <mxGeometry x="4035" y="3521" width="166" height="54" as="geometry" />
        </mxCell>
        <mxCell id="_YqeDHZtM0K_vwDkv74_-285" value="" style="curved=1;startArrow=none;endArrow=block;exitX=0.5;exitY=1;entryX=1;entryY=0.44;rounded=0;" edge="1" parent="1" source="_YqeDHZtM0K_vwDkv74_-186" target="_YqeDHZtM0K_vwDkv74_-187">
          <mxGeometry relative="1" as="geometry">
            <Array as="points">
              <mxPoint x="6453" y="160" />
            </Array>
          </mxGeometry>
        </mxCell>
        <mxCell id="_YqeDHZtM0K_vwDkv74_-286" value="No" style="curved=1;startArrow=none;endArrow=block;exitX=0.26;exitY=1;entryX=0.5;entryY=0;rounded=0;" edge="1" parent="1" source="_YqeDHZtM0K_vwDkv74_-187" target="_YqeDHZtM0K_vwDkv74_-188">
          <mxGeometry relative="1" as="geometry">
            <Array as="points">
              <mxPoint x="5270" y="445" />
            </Array>
          </mxGeometry>
        </mxCell>
        <mxCell id="_YqeDHZtM0K_vwDkv74_-287" value="Yes" style="curved=1;startArrow=none;endArrow=block;exitX=1;exitY=0.86;entryX=1.01;entryY=0.23;rounded=0;" edge="1" parent="1" source="_YqeDHZtM0K_vwDkv74_-187" target="_YqeDHZtM0K_vwDkv74_-189">
          <mxGeometry relative="1" as="geometry">
            <Array as="points">
              <mxPoint x="5537" y="445" />
              <mxPoint x="5537" y="1379" />
            </Array>
          </mxGeometry>
        </mxCell>
        <mxCell id="_YqeDHZtM0K_vwDkv74_-288" value="" style="curved=1;startArrow=none;endArrow=block;exitX=0.12;exitY=1;entryX=0.5;entryY=0;rounded=0;" edge="1" parent="1" source="_YqeDHZtM0K_vwDkv74_-188" target="_YqeDHZtM0K_vwDkv74_-190">
          <mxGeometry relative="1" as="geometry">
            <Array as="points">
              <mxPoint x="5166" y="560" />
            </Array>
          </mxGeometry>
        </mxCell>
        <mxCell id="_YqeDHZtM0K_vwDkv74_-289" value="" style="curved=1;startArrow=none;endArrow=block;exitX=0.5;exitY=1;entryX=0.5;entryY=0;rounded=0;" edge="1" parent="1" source="_YqeDHZtM0K_vwDkv74_-190" target="_YqeDHZtM0K_vwDkv74_-191">
          <mxGeometry relative="1" as="geometry">
            <Array as="points" />
          </mxGeometry>
        </mxCell>
        <mxCell id="_YqeDHZtM0K_vwDkv74_-290" value="" style="curved=1;startArrow=none;endArrow=block;exitX=0.5;exitY=1;entryX=0.5;entryY=0;rounded=0;" edge="1" parent="1" source="_YqeDHZtM0K_vwDkv74_-191" target="_YqeDHZtM0K_vwDkv74_-192">
          <mxGeometry relative="1" as="geometry">
            <Array as="points" />
          </mxGeometry>
        </mxCell>
        <mxCell id="_YqeDHZtM0K_vwDkv74_-291" value="Yes" style="curved=1;startArrow=none;endArrow=block;exitX=0.41;exitY=1;entryX=0.5;entryY=-0.01;rounded=0;" edge="1" parent="1" source="_YqeDHZtM0K_vwDkv74_-192" target="_YqeDHZtM0K_vwDkv74_-193">
          <mxGeometry relative="1" as="geometry">
            <Array as="points">
              <mxPoint x="5142" y="1032" />
            </Array>
          </mxGeometry>
        </mxCell>
        <mxCell id="_YqeDHZtM0K_vwDkv74_-292" value="" style="curved=1;startArrow=none;endArrow=block;exitX=0.5;exitY=0.99;entryX=0.5;entryY=-0.01;rounded=0;" edge="1" parent="1" source="_YqeDHZtM0K_vwDkv74_-193" target="_YqeDHZtM0K_vwDkv74_-194">
          <mxGeometry relative="1" as="geometry">
            <Array as="points" />
          </mxGeometry>
        </mxCell>
        <mxCell id="_YqeDHZtM0K_vwDkv74_-293" value="" style="curved=1;startArrow=none;endArrow=block;exitX=0.5;exitY=0.99;entryX=0.5;entryY=0;rounded=0;" edge="1" parent="1" source="_YqeDHZtM0K_vwDkv74_-194" target="_YqeDHZtM0K_vwDkv74_-195">
          <mxGeometry relative="1" as="geometry">
            <Array as="points" />
          </mxGeometry>
        </mxCell>
        <mxCell id="_YqeDHZtM0K_vwDkv74_-294" value="" style="curved=1;startArrow=none;endArrow=block;exitX=0.5;exitY=1;entryX=0;entryY=0.23;rounded=0;" edge="1" parent="1" source="_YqeDHZtM0K_vwDkv74_-195" target="_YqeDHZtM0K_vwDkv74_-189">
          <mxGeometry relative="1" as="geometry">
            <Array as="points">
              <mxPoint x="5142" y="1379" />
            </Array>
          </mxGeometry>
        </mxCell>
        <mxCell id="_YqeDHZtM0K_vwDkv74_-295" value="No" style="curved=1;startArrow=none;endArrow=block;exitX=1;exitY=0.99;entryX=0.28;entryY=-0.01;rounded=0;" edge="1" parent="1" source="_YqeDHZtM0K_vwDkv74_-192" target="_YqeDHZtM0K_vwDkv74_-196">
          <mxGeometry relative="1" as="geometry">
            <Array as="points">
              <mxPoint x="5293" y="1032" />
            </Array>
          </mxGeometry>
        </mxCell>
        <mxCell id="_YqeDHZtM0K_vwDkv74_-296" value="" style="curved=1;startArrow=none;endArrow=block;exitX=0.61;exitY=-0.01;entryX=1;entryY=0.88;rounded=0;" edge="1" parent="1" source="_YqeDHZtM0K_vwDkv74_-196" target="_YqeDHZtM0K_vwDkv74_-188">
          <mxGeometry relative="1" as="geometry">
            <Array as="points">
              <mxPoint x="5450" y="1032" />
              <mxPoint x="5450" y="560" />
            </Array>
          </mxGeometry>
        </mxCell>
        <mxCell id="_YqeDHZtM0K_vwDkv74_-297" value="Yes" style="curved=1;startArrow=none;endArrow=block;exitX=0;exitY=0.8;entryX=0.5;entryY=0;rounded=0;" edge="1" parent="1" source="_YqeDHZtM0K_vwDkv74_-189" target="_YqeDHZtM0K_vwDkv74_-197">
          <mxGeometry relative="1" as="geometry">
            <Array as="points">
              <mxPoint x="5142" y="1602" />
            </Array>
          </mxGeometry>
        </mxCell>
        <mxCell id="_YqeDHZtM0K_vwDkv74_-298" value="" style="curved=1;startArrow=none;endArrow=block;exitX=0.5;exitY=1;entryX=0.5;entryY=0;rounded=0;" edge="1" parent="1" source="_YqeDHZtM0K_vwDkv74_-197" target="_YqeDHZtM0K_vwDkv74_-198">
          <mxGeometry relative="1" as="geometry">
            <Array as="points" />
          </mxGeometry>
        </mxCell>
        <mxCell id="_YqeDHZtM0K_vwDkv74_-299" value="" style="curved=1;startArrow=none;endArrow=block;exitX=0.5;exitY=1;entryX=0.5;entryY=0;rounded=0;" edge="1" parent="1" source="_YqeDHZtM0K_vwDkv74_-198" target="_YqeDHZtM0K_vwDkv74_-199">
          <mxGeometry relative="1" as="geometry">
            <Array as="points" />
          </mxGeometry>
        </mxCell>
        <mxCell id="_YqeDHZtM0K_vwDkv74_-300" value="" style="curved=1;startArrow=none;endArrow=block;exitX=0.5;exitY=1;entryX=0.5;entryY=0;rounded=0;" edge="1" parent="1" source="_YqeDHZtM0K_vwDkv74_-199" target="_YqeDHZtM0K_vwDkv74_-200">
          <mxGeometry relative="1" as="geometry">
            <Array as="points" />
          </mxGeometry>
        </mxCell>
        <mxCell id="_YqeDHZtM0K_vwDkv74_-301" value="No" style="curved=1;startArrow=none;endArrow=block;exitX=1.01;exitY=0.88;entryX=0.5;entryY=0;rounded=0;" edge="1" parent="1" source="_YqeDHZtM0K_vwDkv74_-189" target="_YqeDHZtM0K_vwDkv74_-201">
          <mxGeometry relative="1" as="geometry">
            <Array as="points">
              <mxPoint x="5493" y="1602" />
            </Array>
          </mxGeometry>
        </mxCell>
        <mxCell id="_YqeDHZtM0K_vwDkv74_-302" value="" style="curved=1;startArrow=none;endArrow=block;exitX=0.5;exitY=1;entryX=1;entryY=0.48;rounded=0;" edge="1" parent="1" source="_YqeDHZtM0K_vwDkv74_-200" target="_YqeDHZtM0K_vwDkv74_-202">
          <mxGeometry relative="1" as="geometry">
            <Array as="points">
              <mxPoint x="5142" y="2297" />
            </Array>
          </mxGeometry>
        </mxCell>
        <mxCell id="_YqeDHZtM0K_vwDkv74_-303" value="No" style="curved=1;startArrow=none;endArrow=block;exitX=0;exitY=0.81;entryX=0.5;entryY=0;rounded=0;" edge="1" parent="1" source="_YqeDHZtM0K_vwDkv74_-202" target="_YqeDHZtM0K_vwDkv74_-203">
          <mxGeometry relative="1" as="geometry">
            <Array as="points">
              <mxPoint x="1396" y="2636" />
            </Array>
          </mxGeometry>
        </mxCell>
        <mxCell id="_YqeDHZtM0K_vwDkv74_-304" value="Yes" style="curved=1;startArrow=none;endArrow=block;exitX=1;exitY=0.79;entryX=0.5;entryY=0;rounded=0;" edge="1" parent="1" source="_YqeDHZtM0K_vwDkv74_-202" target="_YqeDHZtM0K_vwDkv74_-204">
          <mxGeometry relative="1" as="geometry">
            <Array as="points">
              <mxPoint x="1978" y="2636" />
            </Array>
          </mxGeometry>
        </mxCell>
        <mxCell id="_YqeDHZtM0K_vwDkv74_-305" value="" style="curved=1;startArrow=none;endArrow=block;exitX=0;exitY=0.71;entryX=0.5;entryY=0;rounded=0;" edge="1" parent="1" source="_YqeDHZtM0K_vwDkv74_-204" target="_YqeDHZtM0K_vwDkv74_-205">
          <mxGeometry relative="1" as="geometry">
            <Array as="points">
              <mxPoint x="1458" y="2774" />
            </Array>
          </mxGeometry>
        </mxCell>
        <mxCell id="_YqeDHZtM0K_vwDkv74_-306" value="" style="curved=1;startArrow=none;endArrow=block;exitX=0.5;exitY=1;entryX=0.5;entryY=0;rounded=0;" edge="1" parent="1" source="_YqeDHZtM0K_vwDkv74_-205" target="_YqeDHZtM0K_vwDkv74_-206">
          <mxGeometry relative="1" as="geometry">
            <Array as="points" />
          </mxGeometry>
        </mxCell>
        <mxCell id="_YqeDHZtM0K_vwDkv74_-307" value="" style="curved=1;startArrow=none;endArrow=block;exitX=0.5;exitY=1;entryX=1;entryY=0.31;rounded=0;" edge="1" parent="1" source="_YqeDHZtM0K_vwDkv74_-206" target="_YqeDHZtM0K_vwDkv74_-207">
          <mxGeometry relative="1" as="geometry">
            <Array as="points">
              <mxPoint x="1458" y="3006" />
            </Array>
          </mxGeometry>
        </mxCell>
        <mxCell id="_YqeDHZtM0K_vwDkv74_-308" value="" style="curved=1;startArrow=none;endArrow=block;exitX=0.5;exitY=1;entryX=0.5;entryY=0;rounded=0;" edge="1" parent="1" source="_YqeDHZtM0K_vwDkv74_-207" target="_YqeDHZtM0K_vwDkv74_-208">
          <mxGeometry relative="1" as="geometry">
            <Array as="points" />
          </mxGeometry>
        </mxCell>
        <mxCell id="_YqeDHZtM0K_vwDkv74_-309" value="" style="curved=1;startArrow=none;endArrow=block;exitX=0.5;exitY=1;entryX=0.5;entryY=0;rounded=0;" edge="1" parent="1" source="_YqeDHZtM0K_vwDkv74_-208" target="_YqeDHZtM0K_vwDkv74_-209">
          <mxGeometry relative="1" as="geometry">
            <Array as="points" />
          </mxGeometry>
        </mxCell>
        <mxCell id="_YqeDHZtM0K_vwDkv74_-310" value="" style="curved=1;startArrow=none;endArrow=block;exitX=0;exitY=0.93;entryX=0.5;entryY=0;rounded=0;" edge="1" parent="1" source="_YqeDHZtM0K_vwDkv74_-204" target="_YqeDHZtM0K_vwDkv74_-210">
          <mxGeometry relative="1" as="geometry">
            <Array as="points">
              <mxPoint x="1730" y="2774" />
            </Array>
          </mxGeometry>
        </mxCell>
        <mxCell id="_YqeDHZtM0K_vwDkv74_-311" value="" style="curved=1;startArrow=none;endArrow=block;exitX=0.5;exitY=1;entryX=0.5;entryY=0;rounded=0;" edge="1" parent="1" source="_YqeDHZtM0K_vwDkv74_-210" target="_YqeDHZtM0K_vwDkv74_-211">
          <mxGeometry relative="1" as="geometry">
            <Array as="points" />
          </mxGeometry>
        </mxCell>
        <mxCell id="_YqeDHZtM0K_vwDkv74_-312" value="" style="curved=1;startArrow=none;endArrow=block;exitX=0.5;exitY=1;entryX=0.44;entryY=0;rounded=0;" edge="1" parent="1" source="_YqeDHZtM0K_vwDkv74_-211" target="_YqeDHZtM0K_vwDkv74_-212">
          <mxGeometry relative="1" as="geometry">
            <Array as="points">
              <mxPoint x="1730" y="3006" />
            </Array>
          </mxGeometry>
        </mxCell>
        <mxCell id="_YqeDHZtM0K_vwDkv74_-313" value="" style="curved=1;startArrow=none;endArrow=block;exitX=0.5;exitY=1;entryX=0.5;entryY=0;rounded=0;" edge="1" parent="1" source="_YqeDHZtM0K_vwDkv74_-212" target="_YqeDHZtM0K_vwDkv74_-213">
          <mxGeometry relative="1" as="geometry">
            <Array as="points" />
          </mxGeometry>
        </mxCell>
        <mxCell id="_YqeDHZtM0K_vwDkv74_-314" value="" style="curved=1;startArrow=none;endArrow=block;exitX=1;exitY=0.64;entryX=0.5;entryY=0;rounded=0;" edge="1" parent="1" source="_YqeDHZtM0K_vwDkv74_-204" target="_YqeDHZtM0K_vwDkv74_-214">
          <mxGeometry relative="1" as="geometry">
            <Array as="points">
              <mxPoint x="2729" y="2774" />
            </Array>
          </mxGeometry>
        </mxCell>
        <mxCell id="_YqeDHZtM0K_vwDkv74_-315" value="" style="curved=1;startArrow=none;endArrow=block;exitX=0;exitY=0.66;entryX=0.5;entryY=0;rounded=0;" edge="1" parent="1" source="_YqeDHZtM0K_vwDkv74_-214" target="_YqeDHZtM0K_vwDkv74_-215">
          <mxGeometry relative="1" as="geometry">
            <Array as="points">
              <mxPoint x="2018" y="2878" />
            </Array>
          </mxGeometry>
        </mxCell>
        <mxCell id="_YqeDHZtM0K_vwDkv74_-316" value="" style="curved=1;startArrow=none;endArrow=block;exitX=0;exitY=0.75;entryX=0.5;entryY=0;rounded=0;" edge="1" parent="1" source="_YqeDHZtM0K_vwDkv74_-214" target="_YqeDHZtM0K_vwDkv74_-216">
          <mxGeometry relative="1" as="geometry">
            <Array as="points">
              <mxPoint x="2275" y="2878" />
            </Array>
          </mxGeometry>
        </mxCell>
        <mxCell id="_YqeDHZtM0K_vwDkv74_-317" value="" style="curved=1;startArrow=none;endArrow=block;exitX=0.96;exitY=1;entryX=0.5;entryY=0;rounded=0;" edge="1" parent="1" source="_YqeDHZtM0K_vwDkv74_-214" target="_YqeDHZtM0K_vwDkv74_-217">
          <mxGeometry relative="1" as="geometry">
            <Array as="points">
              <mxPoint x="2935" y="2878" />
            </Array>
          </mxGeometry>
        </mxCell>
        <mxCell id="_YqeDHZtM0K_vwDkv74_-318" value="" style="curved=1;startArrow=none;endArrow=block;exitX=1;exitY=0.66;entryX=0.5;entryY=0;rounded=0;" edge="1" parent="1" source="_YqeDHZtM0K_vwDkv74_-214" target="_YqeDHZtM0K_vwDkv74_-218">
          <mxGeometry relative="1" as="geometry">
            <Array as="points">
              <mxPoint x="3449" y="2878" />
            </Array>
          </mxGeometry>
        </mxCell>
        <mxCell id="_YqeDHZtM0K_vwDkv74_-319" value="" style="curved=1;startArrow=none;endArrow=block;exitX=1;exitY=0.6;entryX=0.5;entryY=0;rounded=0;" edge="1" parent="1" source="_YqeDHZtM0K_vwDkv74_-214" target="_YqeDHZtM0K_vwDkv74_-219">
          <mxGeometry relative="1" as="geometry">
            <Array as="points">
              <mxPoint x="3849" y="2878" />
            </Array>
          </mxGeometry>
        </mxCell>
        <mxCell id="_YqeDHZtM0K_vwDkv74_-320" value="" style="curved=1;startArrow=none;endArrow=block;exitX=0.5;exitY=1;entryX=1;entryY=0.48;rounded=0;" edge="1" parent="1" source="_YqeDHZtM0K_vwDkv74_-201" target="_YqeDHZtM0K_vwDkv74_-220">
          <mxGeometry relative="1" as="geometry">
            <Array as="points">
              <mxPoint x="5493" y="1716" />
            </Array>
          </mxGeometry>
        </mxCell>
        <mxCell id="_YqeDHZtM0K_vwDkv74_-321" value="No" style="curved=1;startArrow=none;endArrow=block;exitX=0.23;exitY=1;entryX=0.5;entryY=0;rounded=0;" edge="1" parent="1" source="_YqeDHZtM0K_vwDkv74_-220" target="_YqeDHZtM0K_vwDkv74_-221">
          <mxGeometry relative="1" as="geometry">
            <Array as="points">
              <mxPoint x="697" y="2055" />
            </Array>
          </mxGeometry>
        </mxCell>
        <mxCell id="_YqeDHZtM0K_vwDkv74_-322" value="Yes" style="curved=1;startArrow=none;endArrow=block;exitX=1;exitY=0.93;entryX=0.5;entryY=0;rounded=0;" edge="1" parent="1" source="_YqeDHZtM0K_vwDkv74_-220" target="_YqeDHZtM0K_vwDkv74_-222">
          <mxGeometry relative="1" as="geometry">
            <Array as="points">
              <mxPoint x="995" y="2055" />
            </Array>
          </mxGeometry>
        </mxCell>
        <mxCell id="_YqeDHZtM0K_vwDkv74_-323" value="" style="curved=1;startArrow=none;endArrow=block;exitX=0.21;exitY=1;entryX=0.5;entryY=0;rounded=0;" edge="1" parent="1" source="_YqeDHZtM0K_vwDkv74_-222" target="_YqeDHZtM0K_vwDkv74_-223">
          <mxGeometry relative="1" as="geometry">
            <Array as="points">
              <mxPoint x="872" y="2193" />
            </Array>
          </mxGeometry>
        </mxCell>
        <mxCell id="_YqeDHZtM0K_vwDkv74_-324" value="" style="curved=1;startArrow=none;endArrow=block;exitX=0.5;exitY=1;entryX=0.5;entryY=0;rounded=0;" edge="1" parent="1" source="_YqeDHZtM0K_vwDkv74_-223" target="_YqeDHZtM0K_vwDkv74_-224">
          <mxGeometry relative="1" as="geometry">
            <Array as="points" />
          </mxGeometry>
        </mxCell>
        <mxCell id="_YqeDHZtM0K_vwDkv74_-325" value="" style="curved=1;startArrow=none;endArrow=block;exitX=0.5;exitY=1;entryX=0.5;entryY=0;rounded=0;" edge="1" parent="1" source="_YqeDHZtM0K_vwDkv74_-224" target="_YqeDHZtM0K_vwDkv74_-225">
          <mxGeometry relative="1" as="geometry">
            <Array as="points" />
          </mxGeometry>
        </mxCell>
        <mxCell id="_YqeDHZtM0K_vwDkv74_-326" value="" style="curved=1;startArrow=none;endArrow=block;exitX=0.5;exitY=1;entryX=0.5;entryY=0;rounded=0;" edge="1" parent="1" source="_YqeDHZtM0K_vwDkv74_-225" target="_YqeDHZtM0K_vwDkv74_-226">
          <mxGeometry relative="1" as="geometry">
            <Array as="points" />
          </mxGeometry>
        </mxCell>
        <mxCell id="_YqeDHZtM0K_vwDkv74_-327" value="" style="curved=1;startArrow=none;endArrow=block;exitX=0.79;exitY=1;entryX=0.5;entryY=0;rounded=0;" edge="1" parent="1" source="_YqeDHZtM0K_vwDkv74_-222" target="_YqeDHZtM0K_vwDkv74_-227">
          <mxGeometry relative="1" as="geometry">
            <Array as="points">
              <mxPoint x="1119" y="2193" />
            </Array>
          </mxGeometry>
        </mxCell>
        <mxCell id="_YqeDHZtM0K_vwDkv74_-328" value="" style="curved=1;startArrow=none;endArrow=block;exitX=0.5;exitY=1;entryX=0.5;entryY=0;rounded=0;" edge="1" parent="1" source="_YqeDHZtM0K_vwDkv74_-227" target="_YqeDHZtM0K_vwDkv74_-228">
          <mxGeometry relative="1" as="geometry">
            <Array as="points" />
          </mxGeometry>
        </mxCell>
        <mxCell id="_YqeDHZtM0K_vwDkv74_-329" value="" style="curved=1;startArrow=none;endArrow=block;exitX=1;exitY=0.77;entryX=0.5;entryY=0;rounded=0;" edge="1" parent="1" source="_YqeDHZtM0K_vwDkv74_-227" target="_YqeDHZtM0K_vwDkv74_-229">
          <mxGeometry relative="1" as="geometry">
            <Array as="points">
              <mxPoint x="1381" y="2297" />
            </Array>
          </mxGeometry>
        </mxCell>
        <mxCell id="_YqeDHZtM0K_vwDkv74_-330" value="" style="curved=1;startArrow=none;endArrow=block;exitX=1;exitY=0.53;entryX=0.5;entryY=0;rounded=0;" edge="1" parent="1" source="_YqeDHZtM0K_vwDkv74_-222" target="_YqeDHZtM0K_vwDkv74_-230">
          <mxGeometry relative="1" as="geometry">
            <Array as="points">
              <mxPoint x="4468" y="2193" />
            </Array>
          </mxGeometry>
        </mxCell>
        <mxCell id="_YqeDHZtM0K_vwDkv74_-331" value="" style="curved=1;startArrow=none;endArrow=block;exitX=0;exitY=0.79;entryX=0.5;entryY=0;rounded=0;" edge="1" parent="1" source="_YqeDHZtM0K_vwDkv74_-230" target="_YqeDHZtM0K_vwDkv74_-231">
          <mxGeometry relative="1" as="geometry">
            <Array as="points">
              <mxPoint x="4106" y="2297" />
            </Array>
          </mxGeometry>
        </mxCell>
        <mxCell id="_YqeDHZtM0K_vwDkv74_-332" value="" style="curved=1;startArrow=none;endArrow=block;exitX=0.2;exitY=1;entryX=0.5;entryY=0;rounded=0;" edge="1" parent="1" source="_YqeDHZtM0K_vwDkv74_-230" target="_YqeDHZtM0K_vwDkv74_-232">
          <mxGeometry relative="1" as="geometry">
            <Array as="points">
              <mxPoint x="4342" y="2297" />
            </Array>
          </mxGeometry>
        </mxCell>
        <mxCell id="_YqeDHZtM0K_vwDkv74_-333" value="" style="curved=1;startArrow=none;endArrow=block;exitX=0.77;exitY=1;entryX=0.5;entryY=0;rounded=0;" edge="1" parent="1" source="_YqeDHZtM0K_vwDkv74_-230" target="_YqeDHZtM0K_vwDkv74_-233">
          <mxGeometry relative="1" as="geometry">
            <Array as="points">
              <mxPoint x="4581" y="2297" />
            </Array>
          </mxGeometry>
        </mxCell>
        <mxCell id="_YqeDHZtM0K_vwDkv74_-334" value="" style="curved=1;startArrow=none;endArrow=block;exitX=1;exitY=0.81;entryX=0.5;entryY=0;rounded=0;" edge="1" parent="1" source="_YqeDHZtM0K_vwDkv74_-230" target="_YqeDHZtM0K_vwDkv74_-234">
          <mxGeometry relative="1" as="geometry">
            <Array as="points">
              <mxPoint x="4805" y="2297" />
            </Array>
          </mxGeometry>
        </mxCell>
        <mxCell id="_YqeDHZtM0K_vwDkv74_-335" value="" style="curved=1;startArrow=none;endArrow=block;exitX=0.5;exitY=1;entryX=1;entryY=0.42;rounded=0;" edge="1" parent="1" source="_YqeDHZtM0K_vwDkv74_-215" target="_YqeDHZtM0K_vwDkv74_-235">
          <mxGeometry relative="1" as="geometry">
            <Array as="points">
              <mxPoint x="2018" y="3006" />
            </Array>
          </mxGeometry>
        </mxCell>
        <mxCell id="_YqeDHZtM0K_vwDkv74_-336" value="No" style="curved=1;startArrow=none;endArrow=block;exitX=0;exitY=0.75;entryX=0.5;entryY=0;rounded=0;" edge="1" parent="1" source="_YqeDHZtM0K_vwDkv74_-235" target="_YqeDHZtM0K_vwDkv74_-236">
          <mxGeometry relative="1" as="geometry">
            <Array as="points">
              <mxPoint x="690" y="3345" />
            </Array>
          </mxGeometry>
        </mxCell>
        <mxCell id="_YqeDHZtM0K_vwDkv74_-337" value="Yes" style="curved=1;startArrow=none;endArrow=block;exitX=1;exitY=0.67;entryX=0.5;entryY=0;rounded=0;" edge="1" parent="1" source="_YqeDHZtM0K_vwDkv74_-235" target="_YqeDHZtM0K_vwDkv74_-237">
          <mxGeometry relative="1" as="geometry">
            <Array as="points">
              <mxPoint x="1546" y="3345" />
            </Array>
          </mxGeometry>
        </mxCell>
        <mxCell id="_YqeDHZtM0K_vwDkv74_-338" value="" style="curved=1;startArrow=none;endArrow=block;exitX=0.5;exitY=1;entryX=0.5;entryY=0;rounded=0;" edge="1" parent="1" source="_YqeDHZtM0K_vwDkv74_-237" target="_YqeDHZtM0K_vwDkv74_-238">
          <mxGeometry relative="1" as="geometry">
            <Array as="points">
              <mxPoint x="1546" y="3459" />
              <mxPoint x="710" y="3484" />
            </Array>
          </mxGeometry>
        </mxCell>
        <mxCell id="_YqeDHZtM0K_vwDkv74_-339" value="" style="curved=1;startArrow=none;endArrow=block;exitX=0.5;exitY=1;entryX=0.5;entryY=0;rounded=0;" edge="1" parent="1" source="_YqeDHZtM0K_vwDkv74_-238" target="_YqeDHZtM0K_vwDkv74_-239">
          <mxGeometry relative="1" as="geometry">
            <Array as="points" />
          </mxGeometry>
        </mxCell>
        <mxCell id="_YqeDHZtM0K_vwDkv74_-340" value="" style="curved=1;startArrow=none;endArrow=block;exitX=0.5;exitY=1;entryX=0;entryY=0.37;rounded=0;" edge="1" parent="1" source="_YqeDHZtM0K_vwDkv74_-216" target="_YqeDHZtM0K_vwDkv74_-240">
          <mxGeometry relative="1" as="geometry">
            <Array as="points">
              <mxPoint x="2275" y="3006" />
            </Array>
          </mxGeometry>
        </mxCell>
        <mxCell id="_YqeDHZtM0K_vwDkv74_-341" value="No" style="curved=1;startArrow=none;endArrow=block;exitX=0;exitY=0.63;entryX=0.5;entryY=0;rounded=0;" edge="1" parent="1" source="_YqeDHZtM0K_vwDkv74_-240" target="_YqeDHZtM0K_vwDkv74_-241">
          <mxGeometry relative="1" as="geometry">
            <Array as="points">
              <mxPoint x="2200" y="3345" />
            </Array>
          </mxGeometry>
        </mxCell>
        <mxCell id="_YqeDHZtM0K_vwDkv74_-342" value="Yes" style="curved=1;startArrow=none;endArrow=block;exitX=1;exitY=1;entryX=0.5;entryY=0;rounded=0;" edge="1" parent="1" source="_YqeDHZtM0K_vwDkv74_-240" target="_YqeDHZtM0K_vwDkv74_-242">
          <mxGeometry relative="1" as="geometry">
            <Array as="points">
              <mxPoint x="3070" y="3345" />
            </Array>
          </mxGeometry>
        </mxCell>
        <mxCell id="_YqeDHZtM0K_vwDkv74_-343" value="" style="curved=1;startArrow=none;endArrow=block;exitX=0.5;exitY=1;entryX=0.5;entryY=0;rounded=0;" edge="1" parent="1" source="_YqeDHZtM0K_vwDkv74_-242" target="_YqeDHZtM0K_vwDkv74_-243">
          <mxGeometry relative="1" as="geometry">
            <Array as="points">
              <mxPoint x="3070" y="3459" />
              <mxPoint x="1894" y="3484" />
            </Array>
          </mxGeometry>
        </mxCell>
        <mxCell id="_YqeDHZtM0K_vwDkv74_-344" value="" style="curved=1;startArrow=none;endArrow=block;exitX=0.5;exitY=1;entryX=0.5;entryY=0;rounded=0;" edge="1" parent="1" source="_YqeDHZtM0K_vwDkv74_-243" target="_YqeDHZtM0K_vwDkv74_-244">
          <mxGeometry relative="1" as="geometry">
            <Array as="points" />
          </mxGeometry>
        </mxCell>
        <mxCell id="_YqeDHZtM0K_vwDkv74_-345" value="" style="curved=1;startArrow=none;endArrow=block;exitX=0.5;exitY=1;entryX=0.5;entryY=0;rounded=0;" edge="1" parent="1" source="_YqeDHZtM0K_vwDkv74_-244" target="_YqeDHZtM0K_vwDkv74_-245">
          <mxGeometry relative="1" as="geometry">
            <Array as="points" />
          </mxGeometry>
        </mxCell>
        <mxCell id="_YqeDHZtM0K_vwDkv74_-346" value="" style="curved=1;startArrow=none;endArrow=block;exitX=0.5;exitY=1;entryX=0;entryY=0.29;rounded=0;" edge="1" parent="1" source="_YqeDHZtM0K_vwDkv74_-217" target="_YqeDHZtM0K_vwDkv74_-246">
          <mxGeometry relative="1" as="geometry">
            <Array as="points">
              <mxPoint x="2935" y="3006" />
            </Array>
          </mxGeometry>
        </mxCell>
        <mxCell id="_YqeDHZtM0K_vwDkv74_-347" value="No" style="curved=1;startArrow=none;endArrow=block;exitX=0.5;exitY=1;entryX=0.5;entryY=0;rounded=0;" edge="1" parent="1" source="_YqeDHZtM0K_vwDkv74_-246" target="_YqeDHZtM0K_vwDkv74_-247">
          <mxGeometry relative="1" as="geometry">
            <Array as="points" />
          </mxGeometry>
        </mxCell>
        <mxCell id="_YqeDHZtM0K_vwDkv74_-348" value="Yes" style="curved=1;startArrow=none;endArrow=block;exitX=1;exitY=0.75;entryX=0.5;entryY=0;rounded=0;" edge="1" parent="1" source="_YqeDHZtM0K_vwDkv74_-246" target="_YqeDHZtM0K_vwDkv74_-248">
          <mxGeometry relative="1" as="geometry">
            <Array as="points">
              <mxPoint x="3687" y="3345" />
            </Array>
          </mxGeometry>
        </mxCell>
        <mxCell id="_YqeDHZtM0K_vwDkv74_-349" value="" style="curved=1;startArrow=none;endArrow=block;exitX=0.5;exitY=1;entryX=0.5;entryY=0;rounded=0;" edge="1" parent="1" source="_YqeDHZtM0K_vwDkv74_-248" target="_YqeDHZtM0K_vwDkv74_-249">
          <mxGeometry relative="1" as="geometry">
            <Array as="points">
              <mxPoint x="3687" y="3459" />
              <mxPoint x="4417" y="3484" />
            </Array>
          </mxGeometry>
        </mxCell>
        <mxCell id="_YqeDHZtM0K_vwDkv74_-350" value="" style="curved=1;startArrow=none;endArrow=block;exitX=0.5;exitY=1;entryX=0.5;entryY=0;rounded=0;" edge="1" parent="1" source="_YqeDHZtM0K_vwDkv74_-249" target="_YqeDHZtM0K_vwDkv74_-250">
          <mxGeometry relative="1" as="geometry">
            <Array as="points" />
          </mxGeometry>
        </mxCell>
        <mxCell id="_YqeDHZtM0K_vwDkv74_-351" value="" style="curved=1;startArrow=none;endArrow=block;exitX=0.5;exitY=1;entryX=0;entryY=0.37;rounded=0;" edge="1" parent="1" source="_YqeDHZtM0K_vwDkv74_-218" target="_YqeDHZtM0K_vwDkv74_-251">
          <mxGeometry relative="1" as="geometry">
            <Array as="points">
              <mxPoint x="3449" y="3006" />
            </Array>
          </mxGeometry>
        </mxCell>
        <mxCell id="_YqeDHZtM0K_vwDkv74_-352" value="No" style="curved=1;startArrow=none;endArrow=block;exitX=0.14;exitY=1;entryX=0.5;entryY=0;rounded=0;" edge="1" parent="1" source="_YqeDHZtM0K_vwDkv74_-251" target="_YqeDHZtM0K_vwDkv74_-252">
          <mxGeometry relative="1" as="geometry">
            <Array as="points">
              <mxPoint x="3944" y="3345" />
            </Array>
          </mxGeometry>
        </mxCell>
        <mxCell id="_YqeDHZtM0K_vwDkv74_-353" value="Yes" style="curved=1;startArrow=none;endArrow=block;exitX=0.96;exitY=1;entryX=0.5;entryY=0;rounded=0;" edge="1" parent="1" source="_YqeDHZtM0K_vwDkv74_-251" target="_YqeDHZtM0K_vwDkv74_-253">
          <mxGeometry relative="1" as="geometry">
            <Array as="points">
              <mxPoint x="4231" y="3345" />
            </Array>
          </mxGeometry>
        </mxCell>
        <mxCell id="_YqeDHZtM0K_vwDkv74_-354" value="" style="curved=1;startArrow=none;endArrow=block;exitX=0.5;exitY=1;entryX=0.5;entryY=0;rounded=0;" edge="1" parent="1" source="_YqeDHZtM0K_vwDkv74_-253" target="_YqeDHZtM0K_vwDkv74_-254">
          <mxGeometry relative="1" as="geometry">
            <Array as="points">
              <mxPoint x="4231" y="3459" />
              <mxPoint x="4852" y="3484" />
            </Array>
          </mxGeometry>
        </mxCell>
        <mxCell id="_YqeDHZtM0K_vwDkv74_-355" value="" style="curved=1;startArrow=none;endArrow=block;exitX=0.5;exitY=1;entryX=0.5;entryY=0;rounded=0;" edge="1" parent="1" source="_YqeDHZtM0K_vwDkv74_-254" target="_YqeDHZtM0K_vwDkv74_-255">
          <mxGeometry relative="1" as="geometry">
            <Array as="points" />
          </mxGeometry>
        </mxCell>
        <mxCell id="_YqeDHZtM0K_vwDkv74_-356" value="" style="curved=1;startArrow=none;endArrow=block;exitX=0.5;exitY=1;entryX=0.5;entryY=0;rounded=0;" edge="1" parent="1" source="_YqeDHZtM0K_vwDkv74_-255" target="_YqeDHZtM0K_vwDkv74_-256">
          <mxGeometry relative="1" as="geometry">
            <Array as="points" />
          </mxGeometry>
        </mxCell>
        <mxCell id="_YqeDHZtM0K_vwDkv74_-357" value="" style="curved=1;startArrow=none;endArrow=block;exitX=0.5;exitY=1;entryX=0.5;entryY=0;rounded=0;" edge="1" parent="1" source="_YqeDHZtM0K_vwDkv74_-256" target="_YqeDHZtM0K_vwDkv74_-257">
          <mxGeometry relative="1" as="geometry">
            <Array as="points" />
          </mxGeometry>
        </mxCell>
        <mxCell id="_YqeDHZtM0K_vwDkv74_-358" value="" style="curved=1;startArrow=none;endArrow=block;exitX=0.5;exitY=1;entryX=0;entryY=0.46;rounded=0;" edge="1" parent="1" source="_YqeDHZtM0K_vwDkv74_-219" target="_YqeDHZtM0K_vwDkv74_-258">
          <mxGeometry relative="1" as="geometry">
            <Array as="points">
              <mxPoint x="3849" y="3006" />
            </Array>
          </mxGeometry>
        </mxCell>
        <mxCell id="_YqeDHZtM0K_vwDkv74_-359" value="No" style="curved=1;startArrow=none;endArrow=block;exitX=0;exitY=0.55;entryX=0.5;entryY=0;rounded=0;" edge="1" parent="1" source="_YqeDHZtM0K_vwDkv74_-258" target="_YqeDHZtM0K_vwDkv74_-259">
          <mxGeometry relative="1" as="geometry">
            <Array as="points">
              <mxPoint x="4457" y="3345" />
            </Array>
          </mxGeometry>
        </mxCell>
        <mxCell id="_YqeDHZtM0K_vwDkv74_-360" value="Yes" style="curved=1;startArrow=none;endArrow=block;exitX=0.5;exitY=1;entryX=0.5;entryY=0;rounded=0;" edge="1" parent="1" source="_YqeDHZtM0K_vwDkv74_-258" target="_YqeDHZtM0K_vwDkv74_-260">
          <mxGeometry relative="1" as="geometry">
            <Array as="points" />
          </mxGeometry>
        </mxCell>
        <mxCell id="_YqeDHZtM0K_vwDkv74_-361" value="" style="curved=1;startArrow=none;endArrow=block;exitX=0.5;exitY=1;entryX=0.5;entryY=0;rounded=0;" edge="1" parent="1" source="_YqeDHZtM0K_vwDkv74_-260" target="_YqeDHZtM0K_vwDkv74_-261">
          <mxGeometry relative="1" as="geometry">
            <Array as="points" />
          </mxGeometry>
        </mxCell>
        <mxCell id="_YqeDHZtM0K_vwDkv74_-362" value="" style="curved=1;startArrow=none;endArrow=block;exitX=0.5;exitY=1;entryX=0.5;entryY=0;rounded=0;" edge="1" parent="1" source="_YqeDHZtM0K_vwDkv74_-261" target="_YqeDHZtM0K_vwDkv74_-262">
          <mxGeometry relative="1" as="geometry">
            <Array as="points" />
          </mxGeometry>
        </mxCell>
        <mxCell id="_YqeDHZtM0K_vwDkv74_-363" value="" style="curved=1;startArrow=none;endArrow=block;exitX=0.5;exitY=1;entryX=0.5;entryY=0;rounded=0;" edge="1" parent="1" source="_YqeDHZtM0K_vwDkv74_-262" target="_YqeDHZtM0K_vwDkv74_-263">
          <mxGeometry relative="1" as="geometry">
            <Array as="points" />
          </mxGeometry>
        </mxCell>
        <mxCell id="_YqeDHZtM0K_vwDkv74_-364" value="" style="curved=1;startArrow=none;endArrow=block;exitX=0.5;exitY=1;entryX=0.5;entryY=0;rounded=0;" edge="1" parent="1" source="_YqeDHZtM0K_vwDkv74_-231" target="_YqeDHZtM0K_vwDkv74_-264">
          <mxGeometry relative="1" as="geometry">
            <Array as="points" />
          </mxGeometry>
        </mxCell>
        <mxCell id="_YqeDHZtM0K_vwDkv74_-365" value="" style="curved=1;startArrow=none;endArrow=block;exitX=0.5;exitY=1;entryX=0.5;entryY=0;rounded=0;" edge="1" parent="1" source="_YqeDHZtM0K_vwDkv74_-264" target="_YqeDHZtM0K_vwDkv74_-265">
          <mxGeometry relative="1" as="geometry">
            <Array as="points" />
          </mxGeometry>
        </mxCell>
        <mxCell id="_YqeDHZtM0K_vwDkv74_-366" value="" style="curved=1;startArrow=none;endArrow=block;exitX=0.5;exitY=1;entryX=0.5;entryY=0;rounded=0;" edge="1" parent="1" source="_YqeDHZtM0K_vwDkv74_-265" target="_YqeDHZtM0K_vwDkv74_-266">
          <mxGeometry relative="1" as="geometry">
            <Array as="points" />
          </mxGeometry>
        </mxCell>
        <mxCell id="_YqeDHZtM0K_vwDkv74_-367" value="" style="curved=1;startArrow=none;endArrow=block;exitX=0.5;exitY=1;entryX=0.75;entryY=0;rounded=0;" edge="1" parent="1" source="_YqeDHZtM0K_vwDkv74_-266" target="_YqeDHZtM0K_vwDkv74_-267">
          <mxGeometry relative="1" as="geometry">
            <Array as="points">
              <mxPoint x="4106" y="3006" />
            </Array>
          </mxGeometry>
        </mxCell>
        <mxCell id="_YqeDHZtM0K_vwDkv74_-368" value="" style="curved=1;startArrow=none;endArrow=block;exitX=0.5;exitY=1;entryX=0.5;entryY=0;rounded=0;" edge="1" parent="1" source="_YqeDHZtM0K_vwDkv74_-232" target="_YqeDHZtM0K_vwDkv74_-268">
          <mxGeometry relative="1" as="geometry">
            <Array as="points" />
          </mxGeometry>
        </mxCell>
        <mxCell id="_YqeDHZtM0K_vwDkv74_-369" value="" style="curved=1;startArrow=none;endArrow=block;exitX=0.5;exitY=1;entryX=0.5;entryY=0;rounded=0;" edge="1" parent="1" source="_YqeDHZtM0K_vwDkv74_-268" target="_YqeDHZtM0K_vwDkv74_-269">
          <mxGeometry relative="1" as="geometry">
            <Array as="points" />
          </mxGeometry>
        </mxCell>
        <mxCell id="_YqeDHZtM0K_vwDkv74_-370" value="" style="curved=1;startArrow=none;endArrow=block;exitX=0.5;exitY=1;entryX=0.5;entryY=0;rounded=0;" edge="1" parent="1" source="_YqeDHZtM0K_vwDkv74_-269" target="_YqeDHZtM0K_vwDkv74_-270">
          <mxGeometry relative="1" as="geometry">
            <Array as="points" />
          </mxGeometry>
        </mxCell>
        <mxCell id="_YqeDHZtM0K_vwDkv74_-371" value="" style="curved=1;startArrow=none;endArrow=block;exitX=0.5;exitY=1;entryX=0.31;entryY=0;rounded=0;" edge="1" parent="1" source="_YqeDHZtM0K_vwDkv74_-270" target="_YqeDHZtM0K_vwDkv74_-271">
          <mxGeometry relative="1" as="geometry">
            <Array as="points">
              <mxPoint x="4342" y="3006" />
            </Array>
          </mxGeometry>
        </mxCell>
        <mxCell id="_YqeDHZtM0K_vwDkv74_-372" value="" style="curved=1;startArrow=none;endArrow=block;exitX=0.5;exitY=1;entryX=0.5;entryY=0;rounded=0;" edge="1" parent="1" source="_YqeDHZtM0K_vwDkv74_-233" target="_YqeDHZtM0K_vwDkv74_-272">
          <mxGeometry relative="1" as="geometry">
            <Array as="points" />
          </mxGeometry>
        </mxCell>
        <mxCell id="_YqeDHZtM0K_vwDkv74_-373" value="" style="curved=1;startArrow=none;endArrow=block;exitX=0.5;exitY=1;entryX=0.5;entryY=0;rounded=0;" edge="1" parent="1" source="_YqeDHZtM0K_vwDkv74_-272" target="_YqeDHZtM0K_vwDkv74_-273">
          <mxGeometry relative="1" as="geometry">
            <Array as="points" />
          </mxGeometry>
        </mxCell>
        <mxCell id="_YqeDHZtM0K_vwDkv74_-374" value="" style="curved=1;startArrow=none;endArrow=block;exitX=0.5;exitY=1;entryX=0.5;entryY=0;rounded=0;" edge="1" parent="1" source="_YqeDHZtM0K_vwDkv74_-273" target="_YqeDHZtM0K_vwDkv74_-274">
          <mxGeometry relative="1" as="geometry">
            <Array as="points" />
          </mxGeometry>
        </mxCell>
        <mxCell id="_YqeDHZtM0K_vwDkv74_-375" value="" style="curved=1;startArrow=none;endArrow=block;exitX=0.5;exitY=1;entryX=0.5;entryY=0;rounded=0;" edge="1" parent="1" source="_YqeDHZtM0K_vwDkv74_-234" target="_YqeDHZtM0K_vwDkv74_-275">
          <mxGeometry relative="1" as="geometry">
            <Array as="points" />
          </mxGeometry>
        </mxCell>
        <mxCell id="_YqeDHZtM0K_vwDkv74_-376" value="" style="curved=1;startArrow=none;endArrow=block;exitX=0.5;exitY=1;entryX=0.5;entryY=0;rounded=0;" edge="1" parent="1" source="_YqeDHZtM0K_vwDkv74_-275" target="_YqeDHZtM0K_vwDkv74_-276">
          <mxGeometry relative="1" as="geometry">
            <Array as="points" />
          </mxGeometry>
        </mxCell>
        <mxCell id="_YqeDHZtM0K_vwDkv74_-377" value="" style="curved=1;startArrow=none;endArrow=block;exitX=0.5;exitY=1;entryX=0.5;entryY=0;rounded=0;" edge="1" parent="1" source="_YqeDHZtM0K_vwDkv74_-276" target="_YqeDHZtM0K_vwDkv74_-277">
          <mxGeometry relative="1" as="geometry">
            <Array as="points" />
          </mxGeometry>
        </mxCell>
        <mxCell id="_YqeDHZtM0K_vwDkv74_-378" value="Check Authentication" style="curved=1;startArrow=none;endArrow=block;exitX=0.5;exitY=1;entryX=0;entryY=0.49;rounded=0;" edge="1" parent="1" source="_YqeDHZtM0K_vwDkv74_-278" target="_YqeDHZtM0K_vwDkv74_-187">
          <mxGeometry relative="1" as="geometry">
            <Array as="points">
              <mxPoint x="124" y="160" />
            </Array>
          </mxGeometry>
        </mxCell>
        <mxCell id="_YqeDHZtM0K_vwDkv74_-379" value="Check Admin Status" style="curved=1;startArrow=none;endArrow=block;exitX=0.5;exitY=1;entryX=1.01;entryY=0.44;rounded=0;" edge="1" parent="1" source="_YqeDHZtM0K_vwDkv74_-281" target="_YqeDHZtM0K_vwDkv74_-189">
          <mxGeometry relative="1" as="geometry">
            <Array as="points">
              <mxPoint x="6261" y="1379" />
            </Array>
          </mxGeometry>
        </mxCell>
        <mxCell id="_YqeDHZtM0K_vwDkv74_-380" value="Check Role Access" style="curved=1;startArrow=none;endArrow=block;exitX=0.5;exitY=1;entryX=0;entryY=0.44;rounded=0;" edge="1" parent="1" source="_YqeDHZtM0K_vwDkv74_-279" target="_YqeDHZtM0K_vwDkv74_-202">
          <mxGeometry relative="1" as="geometry">
            <Array as="points">
              <mxPoint x="311" y="2297" />
            </Array>
          </mxGeometry>
        </mxCell>
        <mxCell id="_YqeDHZtM0K_vwDkv74_-381" value="Check Role Access" style="curved=1;startArrow=none;endArrow=block;exitX=0.85;exitY=1;entryX=0;entryY=0.29;rounded=0;" edge="1" parent="1" source="_YqeDHZtM0K_vwDkv74_-279" target="_YqeDHZtM0K_vwDkv74_-220">
          <mxGeometry relative="1" as="geometry">
            <Array as="points">
              <mxPoint x="402" y="124" />
              <mxPoint x="402" y="1716" />
            </Array>
          </mxGeometry>
        </mxCell>
        <mxCell id="_YqeDHZtM0K_vwDkv74_-382" value="Check Specific Permissions" style="curved=1;startArrow=none;endArrow=block;exitX=0;exitY=0.52;entryX=0;entryY=0.34;rounded=0;" edge="1" parent="1" source="_YqeDHZtM0K_vwDkv74_-280" target="_YqeDHZtM0K_vwDkv74_-235">
          <mxGeometry relative="1" as="geometry">
            <Array as="points">
              <mxPoint x="523" y="124" />
              <mxPoint x="523" y="3006" />
            </Array>
          </mxGeometry>
        </mxCell>
        <mxCell id="_YqeDHZtM0K_vwDkv74_-383" value="Check Specific Permissions" style="curved=1;startArrow=none;endArrow=block;exitX=0.53;exitY=1;entryX=1;entryY=0.46;rounded=0;" edge="1" parent="1" source="_YqeDHZtM0K_vwDkv74_-280" target="_YqeDHZtM0K_vwDkv74_-240">
          <mxGeometry relative="1" as="geometry">
            <Array as="points">
              <mxPoint x="4951" y="124" />
              <mxPoint x="4951" y="3006" />
            </Array>
          </mxGeometry>
        </mxCell>
        <mxCell id="_YqeDHZtM0K_vwDkv74_-384" value="Check Specific Permissions" style="curved=1;startArrow=none;endArrow=block;exitX=1;exitY=0.62;entryX=1;entryY=0.47;rounded=0;" edge="1" parent="1" source="_YqeDHZtM0K_vwDkv74_-280" target="_YqeDHZtM0K_vwDkv74_-246">
          <mxGeometry relative="1" as="geometry">
            <Array as="points">
              <mxPoint x="5663" y="124" />
              <mxPoint x="5663" y="3006" />
            </Array>
          </mxGeometry>
        </mxCell>
        <mxCell id="_YqeDHZtM0K_vwDkv74_-385" value="Check Specific Permissions" style="curved=1;startArrow=none;endArrow=block;exitX=1;exitY=0.59;entryX=1;entryY=0.46;rounded=0;" edge="1" parent="1" source="_YqeDHZtM0K_vwDkv74_-280" target="_YqeDHZtM0K_vwDkv74_-251">
          <mxGeometry relative="1" as="geometry">
            <Array as="points">
              <mxPoint x="5885" y="124" />
              <mxPoint x="5885" y="3006" />
            </Array>
          </mxGeometry>
        </mxCell>
        <mxCell id="_YqeDHZtM0K_vwDkv74_-386" value="Check Specific Permissions" style="curved=1;startArrow=none;endArrow=block;exitX=1;exitY=0.57;entryX=0.69;entryY=0;rounded=0;" edge="1" parent="1" source="_YqeDHZtM0K_vwDkv74_-280" target="_YqeDHZtM0K_vwDkv74_-258">
          <mxGeometry relative="1" as="geometry">
            <Array as="points">
              <mxPoint x="6167" y="124" />
              <mxPoint x="6167" y="3006" />
            </Array>
          </mxGeometry>
        </mxCell>
        <mxCell id="_YqeDHZtM0K_vwDkv74_-387" value="" style="curved=1;startArrow=none;endArrow=block;exitX=0.5;exitY=1;entryX=0;entryY=0.36;rounded=0;" edge="1" parent="1" source="_YqeDHZtM0K_vwDkv74_-236" target="_YqeDHZtM0K_vwDkv74_-282">
          <mxGeometry relative="1" as="geometry">
            <Array as="points">
              <mxPoint x="690" y="3459" />
              <mxPoint x="2174" y="3484" />
            </Array>
          </mxGeometry>
        </mxCell>
        <mxCell id="_YqeDHZtM0K_vwDkv74_-388" value="" style="curved=1;startArrow=none;endArrow=block;exitX=0.5;exitY=1;entryX=0.9;entryY=0;rounded=0;" edge="1" parent="1" source="_YqeDHZtM0K_vwDkv74_-241" target="_YqeDHZtM0K_vwDkv74_-282">
          <mxGeometry relative="1" as="geometry">
            <Array as="points">
              <mxPoint x="2200" y="3459" />
              <mxPoint x="3122" y="3484" />
            </Array>
          </mxGeometry>
        </mxCell>
        <mxCell id="_YqeDHZtM0K_vwDkv74_-389" value="" style="curved=1;startArrow=none;endArrow=block;exitX=0.5;exitY=1;entryX=1;entryY=0.22;rounded=0;" edge="1" parent="1" source="_YqeDHZtM0K_vwDkv74_-247" target="_YqeDHZtM0K_vwDkv74_-282">
          <mxGeometry relative="1" as="geometry">
            <Array as="points">
              <mxPoint x="3331" y="3484" />
            </Array>
          </mxGeometry>
        </mxCell>
        <mxCell id="_YqeDHZtM0K_vwDkv74_-390" value="" style="curved=1;startArrow=none;endArrow=block;exitX=0.5;exitY=1;entryX=1;entryY=0.36;rounded=0;" edge="1" parent="1" source="_YqeDHZtM0K_vwDkv74_-252" target="_YqeDHZtM0K_vwDkv74_-282">
          <mxGeometry relative="1" as="geometry">
            <Array as="points">
              <mxPoint x="3944" y="3459" />
              <mxPoint x="3697" y="3484" />
            </Array>
          </mxGeometry>
        </mxCell>
        <mxCell id="_YqeDHZtM0K_vwDkv74_-391" value="" style="curved=1;startArrow=none;endArrow=block;exitX=0.5;exitY=1;entryX=1;entryY=0.39;rounded=0;" edge="1" parent="1" source="_YqeDHZtM0K_vwDkv74_-259" target="_YqeDHZtM0K_vwDkv74_-282">
          <mxGeometry relative="1" as="geometry">
            <Array as="points">
              <mxPoint x="4457" y="3459" />
              <mxPoint x="3947" y="3484" />
            </Array>
          </mxGeometry>
        </mxCell>
      </root>
    </mxGraphModel>
  </diagram>
</mxfile>
